<svg xmlns="http://www.w3.org/2000/svg" viewBox="0 0 320 150" width="320" height="150" fill="none">
  <rect width="320" height="150" fill="#eef3f6"></rect>

  <rect x="180" y="42" width="66" height="66" rx="4" fill="#ffffff" stroke="#0f2b3d" stroke-width="2.5"></rect>
  <g stroke="#0f2b3d" stroke-width="2">
    <path d="M180 60 H246"></path>
    <path d="M180 75 H246"></path>
    <path d="M180 90 H246"></path>
  </g>
  <g fill="#1a6ea8" opacity="0.7">
    <circle cx="238" cy="51" r="2"></circle>
    <circle cx="238" cy="67.5" r="2"></circle>
    <circle cx="238" cy="82.5" r="2"></circle>
    <circle cx="238" cy="99" r="2"></circle>
  </g>

  <circle cx="112" cy="75" r="26" fill="#ffffff" stroke="#0f2b3d" stroke-width="2.5"></circle>
  <g fill="#1a6ea8" opacity="0.8">
    <path d="M112 75 q-4 -18 -14 -20 q10 8 8 20 Z"></path>
    <path d="M112 75 q18 -4 20 -14 q-8 10 -20 8 Z"></path>
    <path d="M112 75 q4 18 14 20 q-10 -8 -8 -20 Z"></path>
    <path d="M112 75 q-18 4 -20 14 q8 -10 20 -8 Z"></path>
  </g>
  <circle cx="112" cy="75" r="4" fill="#0f2b3d"></circle>

  <g stroke="#1a6ea8" stroke-width="2.5" stroke-linecap="round" stroke-linejoin="round" opacity="0.6">
    <path d="M146 60 H176 M170 55 L176 60 L170 65"></path>
    <path d="M146 90 H176 M170 85 L176 90 L170 95"></path>
  </g>

  <g stroke="#0f2b3d" stroke-width="2.5" stroke-linecap="round" stroke-linejoin="round">
    <path d="M50 75 H78 M72 70 L78 75 L72 80"></path>
  </g>
</svg>
