<svg xmlns="http://www.w3.org/2000/svg" viewBox="0 0 320 150" width="320" height="150" fill="none">
  <rect width="320" height="150" fill="#eef3f6"></rect>

  <g stroke="#1a6ea8" stroke-width="2" stroke-linecap="round" opacity="0.55">
    <path d="M126 40 q6 -10 12 0 q6 10 12 0"></path>
    <path d="M160 30 q6 -10 12 0 q6 10 12 0"></path>
    <path d="M194 42 q6 -10 12 0 q6 10 12 0"></path>
  </g>

  <path d="M120 62 L200 62 L188 112 L132 112 Z" fill="#ffffff" stroke="#0f2b3d" stroke-width="2.5"></path>
  <path d="M120 62 L200 62" stroke="#0f2b3d" stroke-width="2.5"></path>

  <rect x="118" y="58" width="84" height="6" rx="3" fill="#0f2b3d"></rect>

  <rect x="128" y="112" width="64" height="14" rx="3" fill="#1a6ea8" opacity="0.28"></rect>
  <rect x="128" y="112" width="64" height="14" rx="3" stroke="#0f2b3d" stroke-width="2.5"></rect>

  <path d="M232 78 L200 78" stroke="#0f2b3d" stroke-width="2.5" stroke-linecap="round"></path>
  <circle cx="236" cy="78" r="5" fill="#e0a17f"></circle>

  <path d="M232 108 L192 108" stroke="#0f2b3d" stroke-width="2.5" stroke-linecap="round"></path>
  <circle cx="236" cy="108" r="5" fill="#1a6ea8"></circle>

  <g fill="#1a6ea8" opacity="0.5">
    <circle cx="148" cy="88" r="2"></circle>
    <circle cx="160" cy="96" r="2"></circle>
    <circle cx="172" cy="86" r="2"></circle>
  </g>
</svg>
